<svg xmlns="http://www.w3.org/2000/svg" viewBox="0 0 110 100" width="100%" height="100%">
  <g fill="none" stroke="#101010" stroke-width="3" stroke-linecap="round" stroke-linejoin="round">
    
    <rect x="27" y="22" width="18" height="18" rx="3.5" />

    <rect x="27" y="44" width="18" height="18" rx="3.5" />

    <path d="M 67 35 V 25.5 A 3.5 3.5 0 0 0 63.5 22 H 52.5 A 3.5 3.5 0 0 0 49 25.5 V 36.5 A 3.5 3.5 0 0 0 52.5 40 H 61" />

    <path d="M 75 29 Q 75 42 88 42 Q 75 42 75 55 Q 75 42 62 42 Q 75 42 75 29 Z" />

    <path d="M 88 18 V 20 M 88 24 V 26 M 84 22 H 86 M 90 22 H 92" />

    <path d="M 64 50 V 54 M 62 52 H 66" />

    <path d="M 55 60 L 46 68 L 55 76" />
    <path d="M 70 60 L 79 68 L 70 76" />
    <path d="M 66 55 L 59 79" />
    
  </g>
</svg>
